<?xml version="1.0" standalone="no"?>
<!DOCTYPE svg PUBLIC "-//W3C//DTD SVG 20010904//EN"
 "http://www.w3.org/TR/2001/REC-SVG-20010904/DTD/svg10.dtd">
<svg version="1.0" xmlns="http://www.w3.org/2000/svg"
 width="472.000000pt" height="211.000000pt" viewBox="0 0 472.000000 211.000000"
 preserveAspectRatio="xMidYMid meet">

<g transform="translate(0.000000,211.000000) scale(0.100000,-0.100000)"
fill="#000000" stroke="none">
<path d="M2255 2099 c-688 -33 -1366 -148 -1905 -321 -261 -84 -411 -164 -219
-116 455 112 943 197 1317 229 162 13 643 7 807 -11 541 -59 877 -162 1183
-363 54 -35 122 -87 153 -115 l57 -52 532 2 533 3 -73 78 c-260 279 -705 495
-1223 596 -360 70 -719 92 -1162 70z"/>
<path d="M400 1225 l0 -35 321 0 c202 0 327 -4 340 -10 22 -12 26 -58 6 -66
-7 -2 -159 -6 -338 -7 l-324 -2 -3 -112 -3 -113 61 0 60 0 0 80 0 80 284 0
c177 0 295 4 313 11 69 26 98 90 68 149 -30 58 -47 60 -435 60 l-350 0 0 -35z"/>
<path d="M1265 1225 l0 -35 323 0 c204 0 330 -4 343 -10 20 -11 26 -54 9 -65
-5 -3 -153 -6 -328 -5 -176 0 -327 -2 -336 -6 -9 -4 -16 -17 -16 -35 0 -26 5
-30 68 -48 37 -11 159 -47 271 -80 203 -61 205 -61 330 -61 75 0 120 4 111 9
-8 5 -80 27 -160 51 -80 23 -183 54 -230 68 l-85 27 212 5 c195 5 214 7 240
26 15 11 34 34 42 49 21 43 -2 102 -49 126 -32 18 -63 19 -390 19 l-355 0 0
-35z"/>
<path d="M2150 1225 l0 -35 390 0 390 0 0 35 0 35 -390 0 -390 0 0 -35z"/>
<path d="M3012 1073 l3 -188 63 -3 62 -3 0 156 0 156 103 -3 102 -3 3 -152 3
-153 59 0 59 0 3 153 3 152 103 3 102 3 0 -156 0 -155 65 0 65 0 0 190 0 190
-400 0 -400 0 2 -187z"/>
<path d="M4071 1065 l-186 -185 60 0 60 0 141 141 c124 123 145 141 165 135
23 -7 178 -168 187 -194 3 -9 -32 -12 -150 -12 l-154 0 -27 -28 c-15 -15 -27
-31 -27 -35 0 -4 122 -7 271 -7 155 0 269 4 267 9 -8 22 -303 340 -325 350
-13 6 -40 11 -60 11 -34 0 -50 -13 -222 -185z"/>
<path d="M2150 1070 l0 -40 390 0 390 0 0 40 0 40 -390 0 -390 0 0 -40z"/>
<path d="M2150 920 l0 -40 390 0 390 0 0 40 0 40 -390 0 -390 0 0 -40z"/>
<path d="M3595 713 c-118 -109 -405 -270 -593 -332 -308 -102 -670 -156 -1127
-168 -244 -6 -408 3 -695 38 -280 35 -713 117 -1040 198 -63 16 -117 27 -119
25 -5 -5 133 -72 206 -100 205 -77 684 -196 1023 -253 420 -71 747 -100 1190
-108 552 -9 910 32 1300 151 385 117 742 326 928 544 l45 52 -534 0 -534 -1
-50 -46z"/>
</g>
</svg>
